<?xml version="1.0" encoding="UTF-8" standalone="no"?>
<!-- Created with Inkscape (http://www.inkscape.org/) -->

<svg
   xmlns:dc="http://purl.org/dc/elements/1.1/"
   xmlns:cc="http://creativecommons.org/ns#"
   xmlns:rdf="http://www.w3.org/1999/02/22-rdf-syntax-ns#"
   xmlns:svg="http://www.w3.org/2000/svg"
   xmlns="http://www.w3.org/2000/svg"
   xmlns:sodipodi="http://sodipodi.sourceforge.net/DTD/sodipodi-0.dtd"
   xmlns:inkscape="http://www.inkscape.org/namespaces/inkscape"
   width="780.62805"
   height="200.00005"
   viewBox="0 0 780.62803 200.00005"
   id="svg5712"
   version="1.1"
   inkscape:version="0.91 r13725"
   sodipodi:docname="jquest-purple.svg"
   inkscape:export-filename="/home/aisc/ownCloud/Journalism++/WIP/jquest/final-files/jquest-purple-transparent-bg_200x780.png"
   inkscape:export-xdpi="89.927589"
   inkscape:export-ydpi="89.927589">
  <defs
     id="defs5714" />
  <sodipodi:namedview
     id="base"
     pagecolor="#ffffff"
     bordercolor="#666666"
     borderopacity="1.0"
     inkscape:pageopacity="0.0"
     inkscape:pageshadow="2"
     inkscape:zoom="0.15107143"
     inkscape:cx="-1036.0156"
     inkscape:cy="-184.94123"
     inkscape:document-units="px"
     inkscape:current-layer="layer1"
     showgrid="false"
     fit-margin-top="0"
     fit-margin-left="0"
     fit-margin-right="0"
     fit-margin-bottom="0"
     inkscape:window-width="1438"
     inkscape:window-height="879"
     inkscape:window-x="0"
     inkscape:window-y="19"
     inkscape:window-maximized="1"
     units="px" />
  <metadata
     id="metadata5717">
    <rdf:RDF>
      <cc:Work
         rdf:about="">
        <dc:format>image/svg+xml</dc:format>
        <dc:type
           rdf:resource="http://purl.org/dc/dcmitype/StillImage" />
        <dc:title></dc:title>
      </cc:Work>
    </rdf:RDF>
  </metadata>
  <g
     inkscape:label="Layer 1"
     inkscape:groupmode="layer"
     id="layer1"
     transform="translate(631.34674,-664.09459)">
    <path
       sodipodi:nodetypes="cccccccsssccscsccccscsccscsccccccccccscscccscsccscsccscsccccsscccsccscssscscccssccsccccccscsccsscscccscscsccscccsscccscscscsc"
       id="path11937"
       style="color:#000000;clip-rule:nonzero;display:inline;overflow:visible;visibility:visible;opacity:1;isolation:auto;mix-blend-mode:normal;color-interpolation:sRGB;color-interpolation-filters:linearRGB;solid-color:#000000;solid-opacity:1;fill:#3d1c3d;fill-opacity:1;fill-rule:evenodd;stroke:none;stroke-width:2;stroke-linecap:round;stroke-linejoin:round;stroke-miterlimit:4;stroke-dasharray:none;stroke-dashoffset:0;stroke-opacity:1;marker:none;color-rendering:auto;image-rendering:auto;shape-rendering:auto;text-rendering:auto;enable-background:accumulate"
       d="m -631.34674,664.09459 0,200.00004 199.99992,0 0,-200.00004 z m 67.97063,34.57463 63.08503,0 0,85.53971 c 0,15.0912 -3.83563,26.4056 -11.505,33.9512 -7.66927,7.5456 -17.5024,11.3256 -29.50113,11.3256 -15.09127,0 -27.95953,-5.3254 -38.59753,-15.9635 l 12.4359,-17.2532 c 8.41163,8.0404 16.63513,12.0602 24.6755,12.0602 5.69013,0 10.51036,-1.9136 14.46876,-5.7482 4.082,-3.8346 6.124,-9.5924 6.124,-17.2617 l 0,-66.97981 -41.18553,0 z m 677.21777,47.68531 0,50.0978 c 0,4.7005 1.237,8.4733 3.711,11.3184 2.474,2.7213 5.93763,4.082 10.39063,4.082 4.45323,0 8.72073,-2.1647 12.80273,-6.4941 l 8.53527,14.6582 c -7.29827,6.556 -15.4005,9.834 -24.30677,9.834 -8.7825,0 -16.3281,-3.0306 -22.63673,-9.0918 -6.1849,-6.1849 -8.4694,-14.5042 -9.2774,-24.8634 l 0,-49.5411 -12.4316,0 0,-16.69925 12.4316,0 0,-30.98643 20.78127,0 0,30.98643 25.97663,0 0,16.69925 z m -49.1439,52.5099 c 0,9.4011 -3.4016,16.9467 -10.2051,22.6368 -6.8034,5.5664 -15.52413,8.3496 -26.16213,8.3496 -7.1745,0 -14.65827,-1.2988 -22.45127,-3.8965 -7.66926,-2.5976 -14.47263,-6.2467 -20.41026,-10.9473 l 10.01963,-16.1426 c 11.504,8.6589 22.63676,12.9883 33.3985,12.9883 4.7005,0 8.41153,-1.0514 11.1329,-3.1543 2.72136,-2.2265 4.082,-5.0097 4.082,-8.3496 0,-4.948 -6.556,-9.4011 -19.668,-13.3594 -0.9895,-0.3711 -1.73177,-0.6185 -2.22664,-0.7422 -20.53376,-5.5664 -30.80076,-14.8438 -30.80076,-27.8321 0,-9.1537 3.52537,-16.4519 10.57613,-21.8946 7.1745,-5.56645 16.45187,-8.34965 27.83214,-8.34965 11.38026,0 22.14199,3.33987 32.28526,10.01955 l -7.793,15.4005 c -8.0404,-5.3191 -16.76113,-7.9786 -26.16213,-7.9786 -4.948,0 -8.96813,0.9277 -12.06063,2.7832 -3.09251,1.7318 -4.63877,4.3913 -4.63877,7.9786 0,3.2161 1.60813,5.5664 4.82426,7.0508 2.22664,1.1133 5.31914,2.1647 9.27737,3.1543 4.08213,0.9896 7.66937,1.9792 10.76177,2.9687 3.0925,0.9896 6.06123,2.1029 8.90623,3.3399 2.96877,1.237 6.12313,2.9687 9.4629,5.1953 6.67973,4.4531 10.0196,11.3802 10.0196,20.7813 z m -92.994,-10.7618 -77.37326,0 c 0.49487,7.1745 3.77287,12.9884 9.834,17.4415 6.06123,4.3295 12.98837,6.4942 20.78137,6.4942 12.36976,0 21.77089,-3.8965 28.20313,-11.6895 l 11.875,12.9883 c -10.638,11.0091 -24.49213,16.5137 -41.5625,16.5137 -13.85427,0 -25.6674,-4.5768 -35.43963,-13.7305 -9.64837,-9.2773 -14.47264,-21.6472 -14.47264,-37.1095 0,-15.5859 4.948,-27.9558 14.84377,-37.1094 9.89587,-9.15371 21.5235,-13.73055 34.88287,-13.73055 13.48313,0 24.92526,4.08207 34.32626,12.24615 9.40113,8.0404 17.81537,19.6665 14.10163,33.3985 z m -77.37326,-16.3281 56.592,0 c 0,-8.2878 -2.59764,-14.6583 -7.793,-19.1114 -5.19523,-4.4531 -11.62763,-6.6797 -19.29687,-6.6797 -7.54563,0 -14.349,2.3503 -20.41026,7.0508 -6.06127,4.5768 -9.09187,10.8236 -9.09187,18.7403 z m -65.40253,11.3184 0,-53.43765 20.78127,0 0,98.71115 -20.78127,0 0,-17.9981 c -3.33973,6.0613 -7.9785,10.8236 -13.91613,14.2872 -5.81374,3.4635 -12.12237,5.1953 -18.92573,5.1953 -11.13277,0 -20.16277,-3.4017 -27.0899,-10.2051 -6.80337,-6.8034 -10.20514,-16.6374 -10.20514,-29.502 l 0,-60.48845 20.78127,0 0,54.17985 c 0,18.1836 7.54563,27.2754 22.63676,27.2754 7.1745,0 13.42124,-2.3502 18.74024,-7.0508 5.31913,-4.8242 8.6389,-11.837 7.97863,-20.9668 z m -159.17066,46.3868 -2.78323,0.1854 c -19.2969,0 -35.5014,-6.3705 -48.6134,-19.1114 -13.112,-12.8646 -19.668,-28.8217 -19.668,-47.8713 0,-19.1732 6.556,-35.13025 19.668,-47.87115 13.112,-12.86463 29.3165,-19.29693 48.6134,-19.29693 19.297,0 35.50136,6.4323 48.61336,19.29693 13.11214,12.7409 19.66814,28.63615 19.66814,47.68565 0,14.4727 -3.8965,27.3373 -11.6895,38.5939 -7.793,11.1328 -18.18364,19.1732 -31.172,24.1211 4.20573,5.5665 9.52486,8.3497 15.95713,8.3497 4.7005,0 9.27737,-1.237 13.7305,-3.711 4.57687,-2.4739 8.04037,-5.6901 10.39063,-9.6484 l 12.43163,17.2559 c -10.76176,11.3803 -23.06963,17.0704 -36.92389,17.0704 -7.91664,0 -15.52414,-2.2266 -22.82237,-6.6798 -7.29813,-4.4531 -12.43163,-10.5762 -15.4004,-18.3692 z m 29.68763,-100.19555 c -8.7825,-9.1537 -19.60613,-13.73053 -32.47086,-13.73053 -12.8645,0 -23.75,4.57683 -32.65627,13.73053 -8.7825,9.15365 -13.17386,20.28655 -13.17386,33.39855 0,12.9883 4.39136,24.0593 13.17386,33.2129 8.90627,9.1537 19.79177,13.7305 32.65627,13.7305 12.86473,0 23.68836,-4.5768 32.47086,-13.7305 8.90627,-9.1536 13.3594,-20.2246 13.3594,-33.2129 0,-13.112 -4.45313,-24.2449 -13.3594,-33.39855 z"
       inkscape:connector-curvature="0"
       inkscape:export-xdpi="204.71161"
       inkscape:export-ydpi="204.71161" />
  </g>
</svg>
