<?xml version="1.0" encoding="UTF-8" standalone="no"?>
<!-- Created with Inkscape (http://www.inkscape.org/) -->

<svg
   xmlns:dc="http://purl.org/dc/elements/1.1/"
   xmlns:cc="http://creativecommons.org/ns#"
   xmlns:rdf="http://www.w3.org/1999/02/22-rdf-syntax-ns#"
   xmlns:svg="http://www.w3.org/2000/svg"
   xmlns="http://www.w3.org/2000/svg"
   xmlns:sodipodi="http://sodipodi.sourceforge.net/DTD/sodipodi-0.dtd"
   xmlns:inkscape="http://www.inkscape.org/namespaces/inkscape"
   width="780.62805"
   height="200"
   viewBox="0 0 780.62803 200"
   id="svg5712"
   version="1.1"
   inkscape:version="0.91 r13725"
   sodipodi:docname="jquest-black.svg"
   inkscape:export-filename="/home/aisc/ownCloud/Journalism++/WIP/jquest/final-files/jquest-black-transparent-bg_200x780.png"
   inkscape:export-xdpi="89.927589"
   inkscape:export-ydpi="89.927589">
  <defs
     id="defs5714" />
  <sodipodi:namedview
     id="base"
     pagecolor="#ffffff"
     bordercolor="#666666"
     borderopacity="1.0"
     inkscape:pageopacity="0.0"
     inkscape:pageshadow="2"
     inkscape:zoom="0.40525916"
     inkscape:cx="-489.80469"
     inkscape:cy="66.64751"
     inkscape:document-units="px"
     inkscape:current-layer="layer1"
     showgrid="false"
     fit-margin-top="0"
     fit-margin-left="0"
     fit-margin-right="0"
     fit-margin-bottom="0"
     inkscape:window-width="1438"
     inkscape:window-height="879"
     inkscape:window-x="0"
     inkscape:window-y="19"
     inkscape:window-maximized="1"
     units="px" />
  <metadata
     id="metadata5717">
    <rdf:RDF>
      <cc:Work
         rdf:about="">
        <dc:format>image/svg+xml</dc:format>
        <dc:type
           rdf:resource="http://purl.org/dc/dcmitype/StillImage" />
        <dc:title></dc:title>
      </cc:Work>
    </rdf:RDF>
  </metadata>
  <g
     inkscape:label="Layer 1"
     inkscape:groupmode="layer"
     id="layer1"
     transform="translate(622.88564,-166.14491)">
    <path
       sodipodi:nodetypes="cccccccsssccscsccccscsccscsccccccccccscscccscsccscsccscsccccsscccsccscssscscccssccsccccccscsccsscscccscscsccscccsscccscscscsc"
       id="path11937"
       style="color:#000000;clip-rule:nonzero;display:inline;overflow:visible;visibility:visible;opacity:1;isolation:auto;mix-blend-mode:normal;color-interpolation:sRGB;color-interpolation-filters:linearRGB;solid-color:#000000;solid-opacity:1;fill:#000000;fill-opacity:1;fill-rule:evenodd;stroke:none;stroke-width:2;stroke-linecap:round;stroke-linejoin:round;stroke-miterlimit:4;stroke-dasharray:none;stroke-dashoffset:0;stroke-opacity:1;marker:none;color-rendering:auto;image-rendering:auto;shape-rendering:auto;text-rendering:auto;enable-background:accumulate"
       d="m -622.88564,166.14491 0,200 199.99992,0 0,-200 z m 67.97063,34.57463 63.08503,0 0,85.53974 c 0,15.0912 -3.83563,26.40556 -11.505,33.95113 -7.66927,7.5456 -17.5024,11.3256 -29.50113,11.3256 -15.09127,0 -27.95953,-5.3254 -38.59753,-15.96343 l 12.4359,-17.2532 c 8.41163,8.0404 16.63513,12.06016 24.6755,12.06016 5.69013,0 10.51036,-1.91356 14.46876,-5.74823 4.082,-3.8346 6.124,-9.59237 6.124,-17.26167 l 0,-66.9798 -41.18553,0 z m 677.21777,47.68531 0,50.09779 c 0,4.7005 1.237,8.4733 3.711,11.31837 2.474,2.72137 5.93763,4.08207 10.39063,4.08207 4.45323,0 8.72073,-2.16474 12.80273,-6.49417 l 8.53527,14.65827 c -7.29827,6.556 -15.4005,9.834 -24.30677,9.834 -8.7825,0 -16.3281,-3.03063 -22.63673,-9.09187 -6.1849,-6.1849 -8.4694,-14.50413 -9.2774,-24.86333 l 0,-49.54113 -12.431598,0 0,-16.69925 12.431598,0 0,-30.98643 20.78127,0 0,30.98643 25.97663,0 0,16.69925 z m -49.1439,52.50989 c 0,9.40107 -3.4016,16.94667 -10.2051,22.63677 -6.8034,5.56644 -15.524133,8.34967 -26.162132,8.34967 -7.1745,0 -14.658266,-1.29887 -22.451266,-3.8965 -7.6692659,-2.59767 -14.47263214,-6.24677 -20.4102651,-10.9473 l 10.019633,-16.14264 c 11.5039991,8.65887 22.6367651,12.98834 33.3984981,12.98834 4.7005,0 8.411533,-1.05144 11.132899,-3.1543 2.721367,-2.22657 4.082,-5.00977 4.082,-8.34964 0,-4.94796 -6.555999,-9.40106 -19.667999,-13.3594 -0.9895,-0.3711 -1.731766,-0.6185 -2.226633,-0.7422 -20.533766,-5.56643 -30.80076514,-14.8438 -30.80076514,-27.83209 0,-9.1537 3.52536604,-16.4519 10.57613314,-21.8946 7.174499,-5.56645 16.451866,-8.34965 27.832132,-8.34965 11.380266,0 22.141999,3.33987 32.285265,10.01955 l -7.793,15.40046 c -8.0404,-5.31903 -16.761132,-7.97856 -26.162132,-7.97856 -4.948,0 -8.968133,0.92773 -12.060633,2.7832 -3.0925,1.7318 -4.638766,4.39133 -4.638766,7.97856 0,3.21614 1.608133,5.56643 4.824266,7.0508 2.226634,1.1133 5.319133,2.16473 9.277366,3.1543 4.082134,0.9896 7.669367,1.9792 10.761767,2.96877 3.092499,0.98956 6.061233,2.10286 8.906233,3.33986 2.968766,1.23697 6.123133,2.96874 9.462899,5.1953 6.679733,4.45314 10.0196,11.38024 10.0196,20.7813 z m -92.993996,-10.76176 -77.373263,0 c 0.49487,7.1745 3.77287,12.98833 9.834,17.4415 6.061233,4.32943 12.988366,6.49413 20.781366,6.49413 12.369766,0 21.770898,-3.8965 28.203131,-11.68947 l 11.875,12.98827 c -10.638,11.00917 -24.492132,16.51377 -41.562498,16.51377 -13.854266,0 -25.667399,-4.57683 -35.43963,-13.7305 -9.64837,-9.27737 -14.47264,-21.6472 -14.47264,-37.1095 0,-15.58597 4.948,-27.9558 14.84377,-37.10947 9.895871,-9.15367 21.523501,-13.73051 34.882867,-13.73051 13.483132,0 24.925265,4.08207 34.326265,12.24615 9.401132,8.04036 17.815365,19.6665 14.101632,33.39849 z m -77.373263,-16.32814 56.591998,0 c 0,-8.2878 -2.597634,-14.65826 -7.793,-19.11139 -5.195233,-4.45314 -11.627633,-6.6797 -19.296866,-6.6797 -7.545633,0 -14.348999,2.35026 -20.410262,7.0508 -6.06127,4.57683 -9.09187,10.82359 -9.09187,18.74029 z m -65.402531,11.3184 0,-53.43764 20.78127,0 0,98.71118 -20.78127,0 0,-17.9981 c -3.33973,6.06123 -7.9785,10.8236 -13.91613,14.28713 -5.81374,3.46357 -12.12237,5.19537 -18.92573,5.19537 -11.13277,0 -20.16277,-3.4017 -27.0899,-10.2051 -6.80337,-6.8034 -10.20514,-16.63744 -10.20514,-29.50204 l 0,-60.48844 20.78127,0 0,54.17984 c 0,18.1836 7.54563,27.27544 22.63676,27.27544 7.1745,0 13.42124,-2.35027 18.74024,-7.0508 5.31913,-4.82424 8.6389,-11.837 7.97863,-20.96684 z m -159.17066,46.38684 -2.78323,0.18533 c -19.2969,0 -35.5014,-6.37047 -48.6134,-19.11137 -13.112,-12.8646 -19.668,-28.82166 -19.668,-47.87126 0,-19.1732 6.556,-35.13028 19.668,-47.87118 13.112,-12.86463 29.3165,-19.29693 48.6134,-19.29693 19.297,0 35.50136,6.4323 48.61336,19.29693 13.11214,12.7409 19.66814,28.63611 19.66814,47.68564 0,14.4727 -3.8965,27.33734 -11.6895,38.5939 -7.793,11.1328 -18.18364,19.1732 -31.172,24.12114 4.20573,5.56643 9.52486,8.34963 15.95713,8.34963 4.7005,0 9.27737,-1.237 13.7305,-3.71096 4.57687,-2.47394 8.04037,-5.69011 10.39063,-9.64844 l 12.43163,17.2559 c -10.76176,11.3803 -23.06963,17.07043 -36.92389,17.07043 -7.91664,0 -15.52414,-2.2266 -22.82237,-6.67976 -7.29813,-4.45314 -12.43163,-10.5762 -15.4004,-18.36923 z m 29.68763,-100.19558 c -8.7825,-9.1537 -19.60613,-13.73053 -32.47086,-13.73053 -12.8645,0 -23.75,4.57683 -32.65627,13.73053 -8.7825,9.15368 -13.17386,20.28651 -13.17386,33.39851 0,12.9883 4.39136,24.0593 13.17386,33.21297 8.90627,9.15366 19.79177,13.7305 32.65627,13.7305 12.86473,0 23.68836,-4.57684 32.47086,-13.7305 8.90627,-9.15367 13.3594,-20.22467 13.3594,-33.21297 0,-13.112 -4.45313,-24.24483 -13.3594,-33.39851 z"
       inkscape:connector-curvature="0"
       inkscape:export-xdpi="204.71161"
       inkscape:export-ydpi="204.71161" />
  </g>
</svg>
