<?xml version="1.0" encoding="UTF-8" standalone="no"?>
<!-- Created with Inkscape (http://www.inkscape.org/) -->

<svg
   xmlns:dc="http://purl.org/dc/elements/1.1/"
   xmlns:cc="http://creativecommons.org/ns#"
   xmlns:rdf="http://www.w3.org/1999/02/22-rdf-syntax-ns#"
   xmlns:svg="http://www.w3.org/2000/svg"
   xmlns="http://www.w3.org/2000/svg"
   xmlns:sodipodi="http://sodipodi.sourceforge.net/DTD/sodipodi-0.dtd"
   xmlns:inkscape="http://www.inkscape.org/namespaces/inkscape"
   width="780.62805"
   height="200"
   viewBox="0 0 780.62803 200"
   id="svg5712"
   version="1.1"
   inkscape:version="0.91 r13725"
   sodipodi:docname="jquest-white.svg"
   inkscape:export-filename="/home/aisc/ownCloud/Journalism++/WIP/jquest/final-files/jquest-white-transparent-bg_200x780.png"
   inkscape:export-xdpi="89.927589"
   inkscape:export-ydpi="89.927589">
  <defs
     id="defs5714" />
  <sodipodi:namedview
     id="base"
     pagecolor="#ffffff"
     bordercolor="#666666"
     borderopacity="1.0"
     inkscape:pageopacity="0.0"
     inkscape:pageshadow="2"
     inkscape:zoom="0.14594645"
     inkscape:cx="-2023.8212"
     inkscape:cy="5.28217"
     inkscape:document-units="px"
     inkscape:current-layer="layer1"
     showgrid="false"
     fit-margin-top="0"
     fit-margin-left="0"
     fit-margin-right="0"
     fit-margin-bottom="0"
     inkscape:window-width="1438"
     inkscape:window-height="879"
     inkscape:window-x="0"
     inkscape:window-y="19"
     inkscape:window-maximized="1"
     units="px" />
  <metadata
     id="metadata5717">
    <rdf:RDF>
      <cc:Work
         rdf:about="">
        <dc:format>image/svg+xml</dc:format>
        <dc:type
           rdf:resource="http://purl.org/dc/dcmitype/StillImage" />
        <dc:title></dc:title>
      </cc:Work>
    </rdf:RDF>
  </metadata>
  <g
     inkscape:label="Layer 1"
     inkscape:groupmode="layer"
     id="layer1"
     transform="translate(-741.53525,-332.27)">
    <path
       sodipodi:nodetypes="cccccccsssccscsccccscsccscsccccccccccscscccscsccscsccscsccccsscccsccscssscscccssccsccccccscsccsscscccscscsccscccsscccscscscsc"
       id="path11937"
       style="color:#000000;clip-rule:nonzero;display:inline;overflow:visible;visibility:visible;opacity:1;isolation:auto;mix-blend-mode:normal;color-interpolation:sRGB;color-interpolation-filters:linearRGB;solid-color:#000000;solid-opacity:1;fill:#ffffff;fill-opacity:1;fill-rule:evenodd;stroke:none;stroke-width:2;stroke-linecap:round;stroke-linejoin:round;stroke-miterlimit:4;stroke-dasharray:none;stroke-dashoffset:0;stroke-opacity:1;marker:none;color-rendering:auto;image-rendering:auto;shape-rendering:auto;text-rendering:auto;enable-background:accumulate"
       d="m 741.53525,332.27 0,200 199.99992,0 0,-200 z m 67.97063,34.57463 63.08503,0 0,85.53974 c 0,15.0912 -3.83563,26.40556 -11.505,33.95113 -7.66927,7.5456 -17.5024,11.3256 -29.50113,11.3256 -15.09127,0 -27.95953,-5.3254 -38.59753,-15.96343 l 12.4359,-17.2532 c 8.41163,8.0404 16.63513,12.06016 24.6755,12.06016 5.69013,0 10.51036,-1.91356 14.46876,-5.74823 4.082,-3.8346 6.124,-9.59237 6.124,-17.26167 l 0,-66.9798 -41.18553,0 z m 677.21782,47.68531 0,50.09779 c 0,4.7005 1.237,8.4733 3.711,11.31837 2.474,2.72137 5.9376,4.08207 10.3906,4.08207 4.4532,0 8.7207,-2.16474 12.8027,-6.49417 l 8.5353,14.65827 c -7.2983,6.556 -15.4005,9.834 -24.3068,9.834 -8.7825,0 -16.3281,-3.03063 -22.6367,-9.09187 -6.1849,-6.1849 -8.4694,-14.50413 -9.2774,-24.86333 l 0,-49.54113 -12.4316,0 0,-16.69925 12.4316,0 0,-30.98643 20.7813,0 0,30.98643 25.9766,0 0,16.69925 z m -49.1439,52.50989 c 0,9.40107 -3.4016,16.94667 -10.2051,22.63677 -6.8034,5.56644 -15.5242,8.34967 -26.1622,8.34967 -7.1745,0 -14.6582,-1.29887 -22.4512,-3.8965 -7.6693,-2.59767 -14.4727,-6.24677 -20.4103,-10.9473 l 10.0196,-16.14264 c 11.504,8.65887 22.6368,12.98834 33.3985,12.98834 4.7005,0 8.4116,-1.05144 11.1329,-3.1543 2.7214,-2.22657 4.082,-5.00977 4.082,-8.34964 0,-4.94796 -6.556,-9.40106 -19.668,-13.3594 -0.9895,-0.3711 -1.7317,-0.6185 -2.2266,-0.7422 -20.5338,-5.56643 -30.8008,-14.8438 -30.8008,-27.83209 0,-9.1537 3.5254,-16.4519 10.5762,-21.8946 7.1745,-5.56645 16.4518,-8.34965 27.8321,-8.34965 11.3803,0 22.142,3.33987 32.2853,10.01955 l -7.793,15.40046 c -8.0404,-5.31903 -16.7612,-7.97856 -26.1622,-7.97856 -4.948,0 -8.9681,0.92773 -12.0606,2.7832 -3.0925,1.7318 -4.6388,4.39133 -4.6388,7.97856 0,3.21614 1.6082,5.56643 4.8243,7.0508 2.2266,1.1133 5.3191,2.16473 9.2774,3.1543 4.0821,0.9896 7.6693,1.9792 10.7617,2.96877 3.0925,0.98956 6.0613,2.10286 8.9063,3.33986 2.9687,1.23697 6.1231,2.96874 9.4629,5.1953 6.6797,4.45314 10.0196,11.38024 10.0196,20.7813 z m -92.994,-10.76176 -77.3733,0 c 0.4949,7.1745 3.7729,12.98833 9.834,17.4415 6.0612,4.32943 12.9884,6.49413 20.7814,6.49413 12.3697,0 21.7709,-3.8965 28.2031,-11.68947 l 11.875,12.98827 c -10.638,11.00917 -24.4921,16.51377 -41.5625,16.51377 -13.8543,0 -25.6674,-4.57683 -35.4396,-13.7305 -9.6484,-9.27737 -14.4727,-21.6472 -14.4727,-37.1095 0,-15.58597 4.948,-27.9558 14.8438,-37.10947 9.8959,-9.15367 21.5235,-13.73051 34.8829,-13.73051 13.4831,0 24.9252,4.08207 34.3262,12.24615 9.4012,8.04036 17.8154,19.6665 14.1017,33.39849 z m -77.3733,-16.32814 56.592,0 c 0,-8.2878 -2.5976,-14.65826 -7.793,-19.11139 -5.1952,-4.45314 -11.6276,-6.6797 -19.2969,-6.6797 -7.5456,0 -14.349,2.35026 -20.4102,7.0508 -6.0613,4.57683 -9.0919,10.82359 -9.0919,18.74029 z m -65.4025,11.3184 0,-53.43764 20.7812,0 0,98.71118 -20.7812,0 0,-17.9981 c -3.3398,6.06123 -7.9785,10.8236 -13.9162,14.28713 -5.8137,3.46357 -12.1223,5.19537 -18.9257,5.19537 -11.1328,0 -20.1628,-3.4017 -27.0899,-10.2051 -6.8034,-6.8034 -10.2051,-16.63744 -10.2051,-29.50204 l 0,-60.48844 20.7812,0 0,54.17984 c 0,18.1836 7.5457,27.27544 22.6368,27.27544 7.1745,0 13.4212,-2.35027 18.7402,-7.0508 5.3192,-4.82424 8.6389,-11.837 7.9787,-20.96684 z m -159.1707,46.38684 -2.7832,0.18533 c -19.2969,0 -35.5014,-6.37047 -48.61343,-19.11137 -13.112,-12.8646 -19.668,-28.82166 -19.668,-47.87126 0,-19.1732 6.556,-35.13028 19.668,-47.87118 13.11203,-12.86463 29.31653,-19.29693 48.61343,-19.29693 19.297,0 35.5013,6.4323 48.6133,19.29693 13.1122,12.7409 19.6682,28.63611 19.6682,47.68564 0,14.4727 -3.8965,27.33734 -11.6895,38.5939 -7.793,11.1328 -18.1837,19.1732 -31.172,24.12114 4.2057,5.56643 9.5248,8.34963 15.9571,8.34963 4.7005,0 9.2774,-1.237 13.7305,-3.71096 4.5769,-2.47394 8.0404,-5.69011 10.3906,-9.64844 l 12.4317,17.2559 c -10.7618,11.3803 -23.0697,17.07043 -36.9239,17.07043 -7.9167,0 -15.5242,-2.2266 -22.8224,-6.67976 -7.2981,-4.45314 -12.4316,-10.5762 -15.4004,-18.36923 z m 29.6876,-100.19558 c -8.7825,-9.1537 -19.6061,-13.73053 -32.4708,-13.73053 -12.8645,0 -23.75,4.57683 -32.6563,13.73053 -8.7825,9.15368 -13.17386,20.28651 -13.17386,33.39851 0,12.9883 4.39136,24.0593 13.17386,33.21297 8.9063,9.15366 19.7918,13.7305 32.6563,13.7305 12.8647,0 23.6883,-4.57684 32.4708,-13.7305 8.9063,-9.15367 13.3594,-20.22467 13.3594,-33.21297 0,-13.112 -4.4531,-24.24483 -13.3594,-33.39851 z"
       inkscape:connector-curvature="0"
       inkscape:export-xdpi="204.71161"
       inkscape:export-ydpi="204.71161" />
  </g>
</svg>
